<svg xmlns="http://www.w3.org/2000/svg" viewBox="0 0 320.69 56.26"><defs><style>.cls-1{fill:#020304;}.cls-2{fill:#373086;}.cls-3{fill:#fff;}</style></defs><g id="Capa_2" data-name="Capa 2"><g id="Capa_1-2" data-name="Capa 1"><circle class="cls-1" cx="28.13" cy="28.13" r="18.91"/><circle class="cls-1" cx="28.13" cy="28.13" r="23.07"/><circle class="cls-1" cx="28.13" cy="28.13" r="28.13"/><circle class="cls-1" cx="28.13" cy="28.13" r="10.82"/><circle class="cls-2" cx="28.13" cy="28.13" r="5.89"/><path class="cls-3" d="M28.13,13.4A14.73,14.73,0,1,1,13.4,28.13,14.75,14.75,0,0,1,28.13,13.4m0-1.2A15.93,15.93,0,1,0,44.06,28.13,15.93,15.93,0,0,0,28.13,12.2Z"/><path class="cls-3" d="M28.13,7.09a21,21,0,1,1-21,21,21.07,21.07,0,0,1,21-21m0-1.71A22.75,22.75,0,1,0,50.88,28.13,22.74,22.74,0,0,0,28.13,5.38Z"/><path class="cls-2" d="M118,39.73A5.79,5.79,0,0,0,122.26,38l5.33,3.07c-2.17,3-5.46,4.58-9.68,4.58-7.6,0-12.32-5.12-12.32-11.74a11.39,11.39,0,0,1,11.83-11.73c6.49,0,11.29,5,11.29,11.73a12.79,12.79,0,0,1-.27,2.67H112.66C113.51,38.93,115.55,39.73,118,39.73Zm4.09-8.09a5,5,0,0,0-9.55,0Z"/><path class="cls-2" d="M131.82,12.62h6.67V45.06h-6.67Z"/><path class="cls-2" d="M144.15,12.62h6.67V45.06h-6.67Z"/><path class="cls-2" d="M154.32,34A11.78,11.78,0,1,1,166.1,45.69,11.64,11.64,0,0,1,154.32,34Zm16.89,0A5.12,5.12,0,1,0,161,34a5.12,5.12,0,1,0,10.23,0Z"/><path class="cls-2" d="M243.35,14V45.13h-6.66V43a8.35,8.35,0,0,1-6.62,2.71c-5.83,0-10.63-5.11-10.63-11.73s4.8-11.73,10.63-11.73A8.35,8.35,0,0,1,236.69,25V14Zm-6.66,20a5.29,5.29,0,1,0-10.58,0,5.29,5.29,0,1,0,10.58,0Z"/><path class="cls-2" d="M270,22.84l-7.6,21.56c-2.49,7.06-6.44,9.86-12.67,9.55V47.73c3.12,0,4.58-1,5.56-3.69l-8.84-21.2h7.33l4.93,13.6,4.18-13.6Z"/><path class="cls-2" d="M294.46,31.42V45.06H287.8V32.4a3.67,3.67,0,0,0-3.87-4c-2.44,0-4.13,1.43-4.13,4.58V45.06h-6.67V22.84h6.67v2.09c1.2-1.64,3.42-2.71,6.35-2.71C290.64,22.22,294.46,25.42,294.46,31.42Z"/><path class="cls-2" d="M310,39.73A5.78,5.78,0,0,0,314.24,38l5.34,3.07c-2.18,3-5.47,4.58-9.69,4.58-7.6,0-12.31-5.12-12.31-11.74A11.39,11.39,0,0,1,309.4,22.22c6.49,0,11.29,5,11.29,11.73a12.79,12.79,0,0,1-.27,2.67H304.64C305.49,38.93,307.53,39.73,310,39.73Zm4.08-8.09a5,5,0,0,0-9.55,0Z"/><path class="cls-2" d="M216.34,40.09c-2.13,0-2.17-1.28-2.17-3.51V23.52H207.5V36.05c0,2.62-1.24,4.18-3.46,4.18a3.54,3.54,0,0,1-.75-.07c-1.64-.3-2.45-1.63-2.45-3.58V23.52h-6.67V36.05c0,2.62-1.24,4.18-3.47,4.18s-3.2-1.42-3.2-3.65V23.52h-6.66V37.16c0,5.56,3.33,9.2,8.44,9.2,3.16,0,5.2-1.15,6.45-2.93a6.62,6.62,0,0,0,5.82,2.93l.51,0,.55,0c3.16,0,5.2-1.15,6.45-2.93,1.24,1.86,2,2.93,4.59,2.93Z"/><path class="cls-2" d="M65.8,28.86a3.3,3.3,0,0,1,3.58,3.51V45.44h6.67V32.91c0-2.62,1.24-4.18,3.46-4.18a3.54,3.54,0,0,1,.75.07c1.64.3,2.45,1.63,2.45,3.57V45.44h6.67V32.91c0-2.62,1.24-4.18,3.47-4.18s3.2,1.42,3.2,3.64V45.44h6.66V31.8c0-5.56-3.33-9.2-8.44-9.2-3.16,0-5.2,1.15-6.44,2.93A6.61,6.61,0,0,0,82,22.6l-.51,0-.55,0c-3.16,0-5.2,1.15-6.45,2.93a6.94,6.94,0,0,0-6-2.93Z"/></g></g></svg>