<svg xmlns="http://www.w3.org/2000/svg" viewBox="0 0 142.05 142.05"><defs><style>.cls-1{fill:#1d1d1b;}.cls-2{fill:#fff;}.cls-3{fill:#f0801d;}</style></defs><g id="Capa_2" data-name="Capa 2"><g id="Capa_1-2" data-name="Capa 1"><circle class="cls-1" cx="71.02" cy="71.02" r="71.02"/><path class="cls-2" d="M44.27,45.24a5,5,0,0,0,1.55-3.68L51,40.11a9.82,9.82,0,0,1-3.06,8.81c-4.63,4.73-10.68,4.54-14.8.51A9.92,9.92,0,0,1,33,34.93c4-4,10-4,14.18.13a11.14,11.14,0,0,1,1.49,1.79l-9.61,9.81C41,47.54,42.78,46.76,44.27,45.24Zm-2.53-7.47a4.36,4.36,0,0,0-5.83,5.94Z"/><path class="cls-2" d="M46.49,15.77l5.44-2,9.8,26.5-5.45,2Z"/><path class="cls-2" d="M62.92,11.33l5.79-.44,2.15,28.17-5.79.44Z"/><path class="cls-2" d="M75.37,27.92a10.25,10.25,0,1,1,5.9,13.22A10.14,10.14,0,0,1,75.37,27.92ZM89.09,33.2A4.45,4.45,0,1,0,80.78,30a4.45,4.45,0,1,0,8.31,3.2Z"/><path class="cls-2" d="M126.26,93,100,86.56l1.38-5.63,1.77.43a7.23,7.23,0,0,1-.92-6.16c1.21-4.92,6.53-7.92,12.13-6.54s8.92,6.49,7.71,11.42a7.24,7.24,0,0,1-3.67,5l9.29,2.29Zm-15.52-9.79a4.61,4.61,0,1,0-3.49-5.6A4.42,4.42,0,0,0,110.74,83.24Z"/><path class="cls-2" d="M101.45,115.07,92.29,97.4c-3-5.79-2.43-10,1.48-13.73l4,3.7c-1.86,2-2.11,3.49-1,5.73l18.73,7-4.36,4.66-11.58-5,6.15,10.76Z"/><path class="cls-2" d="M72.11,117.51,69.26,106l5.64-1.39,2.64,10.7a3.2,3.2,0,0,0,4.12,2.62c2.06-.52,3.19-2.07,2.54-4.74l-2.54-10.25,5.64-1.4,4.64,18.79L86.3,121.7l-.43-1.77a6.6,6.6,0,0,1-4.81,3.62C77.27,124.49,73.37,122.58,72.11,117.51Z"/><path class="cls-2" d="M56.86,106.78a5.06,5.06,0,0,0-4,.1l-3.43-4.12a9.82,9.82,0,0,1,9.29-.82c6.22,2.29,8.53,7.88,6.53,13.3a9.91,9.91,0,0,1-13.19,6c-5.3-2-7.71-7.5-5.69-13a11.36,11.36,0,0,1,1-2.1l12.89,4.75C60.29,108.79,58.86,107.52,56.86,106.78Zm-5.78,5.38A4.36,4.36,0,0,0,58.89,115Z"/><path class="cls-2" d="M110.22,65.16a2.74,2.74,0,0,1,1.17-4l9.72-5.49-2.67-4.73-9.32,5.26c-2,1.1-3.6.87-4.49-.7a3,3,0,0,1-.25-.56c-.43-1.29.23-2.43,1.68-3.24l9.72-5.48h0l-2.67-4.73-9.32,5.26c-2,1.1-3.61.87-4.5-.71s-.22-2.87,1.43-3.8l9.72-5.48L107.78,32,97.63,37.74c-4.13,2.34-5.51,6.23-3.47,9.85a5.85,5.85,0,0,0,4.76,3.34,5.31,5.31,0,0,0,.15,5.36c.07.13.15.24.22.36s.13.27.21.4a5.86,5.86,0,0,0,4.76,3.34,5.57,5.57,0,0,0,.22,5.49Z"/><path class="cls-2" d="M22.54,85.16a2.75,2.75,0,0,1,3.25-2.63l11.11,1,.5-5.4-10.66-1c-2.23-.2-3.46-1.33-3.3-3.13a3.68,3.68,0,0,1,.11-.61c.38-1.3,1.58-1.86,3.23-1.71l11.11,1h0l.5-5.41-10.66-1c-2.23-.2-3.46-1.33-3.3-3.14s1.45-2.48,3.34-2.31l11.11,1,.49-5.41-11.6-1.06c-4.72-.43-8.07,2-8.45,6.13a5.88,5.88,0,0,0,2,5.46,5.31,5.31,0,0,0-2.93,4.49c0,.15,0,.28,0,.42s0,.29-.07.45a5.87,5.87,0,0,0,2,5.45,5.56,5.56,0,0,0-2.94,4.65Z"/><circle class="cls-3" cx="71.02" cy="73.27" r="19.39"/></g></g></svg>